M48
; DRILL file {KiCad (5.1.12)-1} date 07/15/22 23:38:09
; FORMAT={-:-/ absolute / inch / decimal}
; #@! TF.CreationDate,2022-07-15T23:38:09+02:00
; #@! TF.GenerationSoftware,Kicad,Pcbnew,(5.1.12)-1
; #@! TF.FileFunction,Plated,1,2,PTH
FMAT,2
INCH
T1C0.0157
T2C0.0433
T3C0.0472
T4C0.0866
%
G90
G05
T1
X1.9583Y-2.4783
X1.9626Y-2.7169
X2.049Y-2.6112
X2.0555Y-1.9307
X2.1224Y-2.0988
X2.1528Y-2.3075
X2.1638Y-2.9654
X2.1691Y-2.1415
X2.1772Y-2.628
X2.1941Y-1.9547
X2.1963Y-1.7919
X2.2051Y-2.5713
X2.2132Y-3.0232
X2.2268Y-3.2909
X2.2283Y-2.4213
X2.2776Y-2.5484
X2.2933Y-2.5887
X2.2995Y-2.9806
X2.3075Y-2.2083
X2.3433Y-2.8996
X2.3618Y-2.6553
X2.3634Y-2.5528
X2.3642Y-2.4563
X2.3648Y-2.597
X2.3673Y-2.1612
X2.3994Y-2.7691
X2.4081Y-2.465
X2.4264Y-1.8789
X2.4835Y-2.4331
X2.515Y-2.3028
X2.5248Y-1.7181
X2.5445Y-2.4362
X2.5456Y-2.3765
X2.548Y-2.1421
X2.5768Y-2.222
X2.6043Y-2.9961
X2.6075Y-2.4399
X2.6213Y-2.3024
X2.6315Y-3.0795
X2.6362Y-1.6689
X2.6403Y-2.2564
X2.6403Y-2.3483
X2.6647Y-3.0093
X2.6862Y-2.2374
X2.6862Y-2.3673
X2.6988Y-1.922
X2.7322Y-2.2564
X2.7322Y-2.3483
X2.7512Y-2.3024
X2.7709Y-3.2791
X2.8004Y-2.998
X2.8035Y-2.4294
X2.8173Y-2.2165
X2.8508Y-2.302
X2.8909Y-2.4323
X2.916Y-2.4019
X2.9209Y-1.9819
X2.9272Y-2.9087
X2.9335Y-2.8228
X2.9335Y-2.8622
X2.95Y-3.2311
X2.95Y-3.3014
X2.961Y-2.7527
X2.9717Y-2.1827
X2.972Y-3.1764
X2.9902Y-1.6461
X2.9955Y-2.7337
X3.0075Y-1.822
X3.0146Y-2.6748
X3.0169Y-1.9287
X3.0221Y-2.311
X3.0221Y-2.537
X3.0374Y-2.9713
X3.039Y-2.8224
X3.0392Y-2.7384
X3.0484Y-3.1193
X3.0496Y-1.4913
X3.0516Y-3.0291
X3.0772Y-1.7169
X3.089Y-2.7055
X3.0909Y-3.2024
X3.1157Y-2.8335
X3.1496Y-1.8394
X3.1567Y-2.852
X3.1783Y-1.885
X3.1807Y-1.4965
X3.2067Y-3.2937
X3.2091Y-1.8213
X3.263Y-1.3827
X3.2772Y-2.8083
X3.3024Y-2.726
X3.3122Y-1.6406
X3.3587Y-3.1425
X3.3913Y-3.2563
X3.3925Y-1.3858
X3.3961Y-3.2961
X3.4024Y-3.1528
X3.4744Y-2.8008
X3.5559Y-2.9177
X3.6106Y-2.913
X3.661Y-2.8008
X3.8303Y-1.6398
X3.8433Y-2.9016
X3.8598Y-1.5469
T2
X1.974Y-1.9012
X1.974Y-2.0154
X2.1272Y-3.0441
X2.1272Y-3.1583
X2.1295Y-1.3346
X2.1295Y-1.4488
X2.9Y-1.3331
X3.0142Y-1.3331
X3.8313Y-1.7376
T3
X1.974Y-2.1285
X2.1272Y-3.2715
X2.1295Y-1.562
X2.7868Y-1.3331
X3.8313Y-1.8508
T4
X2.6862Y-2.3024
T0
M30
